<?xml version="1.0" standalone="no"?>
<!DOCTYPE svg PUBLIC "-//W3C//DTD SVG 1.1//EN" "http://www.w3.org/Graphics/SVG/1.1/DTD/svg11.dtd" >
<svg xmlns="http://www.w3.org/2000/svg" xmlns:xlink="http://www.w3.org/1999/xlink" version="1.1">
<metadata>
Created by FontForge 20170731 at Fri Oct 14 13:26:35 2011
 By Aleksey,,,
Copyright (c) 2011 by vernon adams. All rights reserved.
</metadata>
<defs>
<font id="Rokkitt-Light" horiz-adv-x="395" >
  <font-face 
    font-family="Rokkitt"
    font-weight="300"
    font-stretch="normal"
    units-per-em="2048"
    panose-1="2 0 5 3 5 0 0 2 0 3"
    ascent="1638"
    descent="-410"
    x-height="836"
    cap-height="1234"
    bbox="-88 -360 1896 1650"
    underline-thickness="102"
    underline-position="-307"
    unicode-range="U+0001-2212"
  />
<missing-glyph 
 />
    <glyph glyph-name="fi" unicode="fi" horiz-adv-x="1133" 
d="M259 970q0 87 60 152t148 95.5t187 30.5q162 0 240 -88q26 -28 27 -62q0 -72 -65 -72q-64 0 -64 62q0 26 28 42q-66 56 -183 56q-73 0 -140 -24t-113 -74.5t-46 -115.5v-136h563v-776h153v-60h-382v60h150v716h-484v-716h191v-60h-425v60h155v716h-155v60h155v134z" />
    <glyph glyph-name="fl" unicode="fl" horiz-adv-x="1194" 
d="M259 962q0 73 34.5 130t93 91.5t130.5 52t153 17.5q175 0 248 -73q24 -24 24 -57v-1063h183v-60h-449v60h186v1063q0 67 -252 67q-83 0 -177.5 -58t-94.5 -167v-129h203v-57h-203v-719h191v-60h-425v60h155v719h-155v57h155v126z" />
    <glyph glyph-name=".notdef" 
 />
    <glyph glyph-name=".null" horiz-adv-x="0" 
 />
    <glyph glyph-name="nonmarkingreturn" 
 />
    <glyph glyph-name="NULL" horiz-adv-x="0" 
 />
    <glyph glyph-name="NULL" horiz-adv-x="0" 
 />
    <glyph glyph-name="uni0001" 
 />
    <glyph glyph-name="uni0003" 
 />
    <glyph glyph-name="uni0004" 
 />
    <glyph glyph-name="uni0005" 
 />
    <glyph glyph-name="uni0006" 
 />
    <glyph glyph-name="uni0007" 
 />
    <glyph glyph-name="uni0008" 
 />
    <glyph glyph-name="uni0009" unicode="&#x9;" 
 />
    <glyph glyph-name="uni0002" unicode="&#xd;" 
 />
    <glyph glyph-name="uni0010" 
 />
    <glyph glyph-name="uni0011" 
 />
    <glyph glyph-name="uni0012" 
 />
    <glyph glyph-name="uni0013" 
 />
    <glyph glyph-name="uni0014" 
 />
    <glyph glyph-name="uni0015" 
 />
    <glyph glyph-name="uni0016" 
 />
    <glyph glyph-name="uni0017" 
 />
    <glyph glyph-name="uni0018" 
 />
    <glyph glyph-name="uni0019" 
 />
    <glyph glyph-name="space" unicode=" " 
 />
    <glyph glyph-name="exclam" unicode="!" horiz-adv-x="432" 
d="M200 344l-29 465v362h89v-362l-29 -465h-31zM164 106h105l-2 -106h-103v106z" />
    <glyph glyph-name="quotedbl" unicode="&#x22;" horiz-adv-x="543" 
d="M383 854h-32l-26 380h91zM190 854h-32l-27 380h92z" />
    <glyph glyph-name="numbersign" unicode="#" horiz-adv-x="1034" 
d="M269 880l29 354h79l-29 -354h365l29 354h79l-29 -354h188l-5 -59h-188l-30 -364h187l-5 -59h-187l-33 -398h-79l33 398h-365l-33 -398h-79l33 398h-176l5 59h176l30 364h-175l5 59h175zM313 457h365l30 364h-365z" />
    <glyph glyph-name="dollar" unicode="$" horiz-adv-x="1151" 
d="M701 -23v-167h-60v170q-177 19 -338 132v-112h-79v416h79v-220q160 -118 338 -139v537q-218 22 -312 85q-114 77 -114 239.5t118.5 249.5t290.5 87h17v166h60v-171q133 -15 270 -87v71h79v-335h-79v181q-127 82 -270 98v-515q79 -9 139 -23.5t115 -40.5t90 -62.5
t55.5 -92t20.5 -127.5q-1 -123 -91 -220q-111 -120 -326 -120h-3zM951.5 508.5q-80.5 56.5 -250.5 78.5v-534q8 -1 16 -1h47q48 0 103 25.5t86 56.5q79 78 79 198t-80.5 176.5zM637 1182q-154 0 -242.5 -68.5t-88.5 -204.5q0 -127 93 -181q69 -40 242 -58v512h-4z" />
    <glyph glyph-name="percent" unicode="%" horiz-adv-x="1610" 
d="M1446 1310l41 -40l-1101 -1317l-45 47zM720 949q0 106 -70.5 174.5t-175.5 68.5t-174.5 -68.5t-69.5 -174.5t69.5 -174.5t174.5 -68.5t175.5 68.5t70.5 174.5zM699 723.5q-95 -82.5 -225 -82.5q-129 0 -223.5 82t-94.5 226.5t94.5 225t223.5 80.5q131 0 225.5 -81
t94.5 -224.5t-95 -226zM1561 283q0 106 -70.5 174.5t-175.5 68.5t-174.5 -68.5t-69.5 -174.5t69.5 -174.5t174.5 -68.5t175.5 68.5t70.5 174.5zM1540 57.5q-95 -82.5 -225 -82.5q-129 0 -223.5 82t-94.5 226.5t94.5 225t223.5 80.5q131 0 225.5 -81t94.5 -224.5t-95 -226z
" />
    <glyph glyph-name="ampersand" unicode="&#x26;" horiz-adv-x="1161" 
d="M487 1255q119 0 200.5 -63t81.5 -168q0 -171 -151 -274q-57 -39 -143 -74l349 -447q6 9 20 28q68 88 68 254h196v-65h-140q0 -136 -104 -275l84 -103h160v-68h-194l-102 113q-69 -77 -149.5 -105.5t-215.5 -30.5q-146 0 -260.5 101.5t-114.5 243.5q0 162 73 245.5
t228 134.5l-117 161q-50 67 -50 158t77 162.5t204 71.5zM145 332q0 -112 94 -198t211 -86q129 0 195 25t128 97l-363 476q-216 -64 -254 -216q-12 -46 -11 -98zM489 1183q-81 0 -145.5 -47.5t-64.5 -119.5q0 -66 44 -127l117 -161q212 82 244 204q10 41 10 104
q0 67 -61.5 107t-143.5 40z" />
    <glyph glyph-name="quotesingle" unicode="'" horiz-adv-x="350" 
d="M190 854h-32l-27 380h92z" />
    <glyph glyph-name="parenleft" unicode="(" horiz-adv-x="580" 
d="M508 1200q-152 -54 -234.5 -206.5t-82.5 -377.5q0 -322 170 -494q60 -60 147 -91v-68q-193 48 -297.5 232.5t-104.5 420.5q0 374 226 564q76 64 176 88v-68z" />
    <glyph glyph-name="parenright" unicode=")" horiz-adv-x="588" 
d="M394 616q0 219 -80 372.5t-236 211.5v68q192 -48 297 -232.5t105 -419.5q0 -374 -226 -564q-76 -64 -176 -89v68q152 55 234 207.5t82 377.5z" />
    <glyph glyph-name="asterisk" unicode="*" horiz-adv-x="934" 
d="M517 1229l-32 -411l374 174l31 -86l-396 -121l269 -313l-76 -57l-220 346l-221 -346l-76 57l269 313l-396 121l31 86l375 -174l-33 411h101z" />
    <glyph glyph-name="plus" unicode="+" horiz-adv-x="811" 
d="M439 598h355v-64h-355v-396h-62v396h-357v64h357v384h62v-384z" />
    <glyph glyph-name="comma" unicode="," horiz-adv-x="412" 
d="M274 116v-122q0 -174 -135 -174v44q47 15 59 39.5t12 92.5h-62v120h126z" />
    <glyph glyph-name="hyphen" unicode="-" horiz-adv-x="786" 
d="M661 413h-530v62h530v-62z" />
    <glyph glyph-name="period" unicode="." horiz-adv-x="403" 
d="M263 120v-120h-116v120h116z" />
    <glyph glyph-name="slash" unicode="/" horiz-adv-x="537" 
d="M415 1255h71l-368 -1278h-75z" />
    <glyph glyph-name="zero" unicode="0" horiz-adv-x="1124" 
d="M561 -23q-97 0 -173.5 33.5t-127.5 91t-84.5 139.5t-48 175t-14.5 200q0 448 244 590q85 50 204 49q227 0 337.5 -177t110.5 -462q0 -450 -244 -590q-85 -48 -204 -49zM561 48q85 0 149.5 28.5t105 77.5t65.5 123t34.5 155.5t9.5 183.5q0 566 -364 566t-364 -566
q0 -287 87.5 -427.5t276.5 -140.5z" />
    <glyph glyph-name="one" unicode="1" horiz-adv-x="598" 
d="M529 62v-62h-427v62h177v1085l-156 -29l-17 68l254 48v-1172h169z" />
    <glyph glyph-name="two" unicode="2" horiz-adv-x="993" 
d="M793 932q0 104 -72.5 177.5t-174.5 73.5q-240 1 -308 -167q-22 -54 -22 -117t16 -121h-85q-12 56 -12 128q0 157 107.5 253t272.5 96q255 0 337 -199q60 -148 -13.5 -296t-226.5 -307t-255 -249.5t-138 -125.5h600v-78h-710v80q21 22 62 58q391 348 506.5 516t115.5 278z
" />
    <glyph glyph-name="three" unicode="3" horiz-adv-x="997" 
d="M636 660q111 -26 175.5 -108.5t64.5 -215.5q0 -148 -126 -251.5t-312 -103.5q-125 0 -232 65t-157 170l64 41q104 -207 352 -207q132 0 229.5 83.5t97.5 214.5q0 254 -328 267q-52 2 -101 2h-39v80h94q266 0 330 128q20 41 21 105q0 120 -95.5 186.5t-218.5 66.5
q-230 0 -310 -157l-71 31q103 199 383 199q157 0 277 -88t120 -238q0 -97 -60 -169t-158 -101z" />
    <glyph glyph-name="four" unicode="4" horiz-adv-x="895" 
d="M4 442l485 792h114v-792h257v-63h-257v-317h161v-62h-403v62h161v317h-507zM522 442v714l-425 -714h425z" />
    <glyph glyph-name="five" unicode="5" horiz-adv-x="1022" 
d="M123 217q107 -164 373.5 -164.5t347.5 181.5q28 62 28 177t-80.5 215.5t-220.5 100.5q-225 0 -354 -67l-52 25v549h648l-1 -70h-568l-9 -416q109 48 263 48t228 -32q230 -99 230 -389q0 -187 -130.5 -290t-328.5 -103q-291 0 -421 181z" />
    <glyph glyph-name="six" unicode="6" horiz-adv-x="885" 
d="M441 49q142 0 229.5 87t87.5 226q0 135 -92.5 215.5t-185.5 80.5q-155 0 -252.5 -80t-97.5 -222q0 -135 58 -196q104 -111 253 -111zM446 726q163 0 278 -103t115 -259q0 -155 -106.5 -271t-275 -116t-286.5 104t-118 250t135 366l357 664l67 -47l-351 -636q97 48 185 48
z" />
    <glyph glyph-name="seven" unicode="7" horiz-adv-x="897" 
d="M368 52q0 645 414 1112h-627v-248h-77v318h792v-76q-344 -374 -402 -810q-18 -140 -18 -296h181v-63h-427v63h164z" />
    <glyph glyph-name="eight" unicode="8" horiz-adv-x="1042" 
d="M111 328q1 115 75.5 203.5t193.5 112.5q-228 70 -228 302q0 121 99.5 215t271.5 94q162 0 266.5 -90t104.5 -239q0 -96 -64.5 -175t-163.5 -107q123 -24 195.5 -111t72.5 -229q0 -150 -121.5 -239t-289.5 -89t-290 88.5t-122 263.5zM523 596q-153 0 -240.5 -82
t-87.5 -172q0 -149 97.5 -221t230 -72t230 72t97.5 201q0 177 -185 250q-61 24 -142 24zM523 1182q-205 0 -268 -154q-18 -44 -18 -91q0 -104 54 -158q98 -100 232 -100q203 1 267 165q18 46 18 93q0 101 -53 152q-95 93 -232 93z" />
    <glyph glyph-name="nine" unicode="9" horiz-adv-x="952" 
d="M480 1183q-143 0 -230 -87t-87 -226q0 -134 92.5 -214.5t219.5 -80.5q128 1 194 59q122 107 122 241q1 134 -57 196q-104 112 -254 112zM474 506q-163 0 -277.5 103t-114.5 259q0 155 106.5 271t274.5 116t286.5 -104.5t118.5 -245t-135 -370.5l-357 -663l-68 46l352 636
q-98 -48 -186 -48z" />
    <glyph glyph-name="colon" unicode=":" horiz-adv-x="416" 
d="M267 815v-120h-117v120h117zM267 314v-120h-117v120h117z" />
    <glyph glyph-name="semicolon" unicode=";" horiz-adv-x="440" 
d="M292 316v-123q0 -174 -136 -174v45q47 15 59 39.5t12 92.5h-61v120h126zM287 815v-120h-117v120h117z" />
    <glyph glyph-name="less" unicode="&#x3c;" horiz-adv-x="907" 
d="M-18 613l847 642v-93l-733 -549l733 -545v-91z" />
    <glyph glyph-name="equal" unicode="=" horiz-adv-x="791" 
d="M652 634h-509v62h509v-62zM652 356h-509v63h509v-63z" />
    <glyph glyph-name="greater" unicode="&#x3e;" horiz-adv-x="909" 
d="M86 -23v91l733 545l-733 549v93l847 -642z" />
    <glyph glyph-name="question" unicode="?" horiz-adv-x="727" 
d="M325 1151q-183 0 -244 -147l-61 36q76 183 295 184q147 0 237 -82.5t90 -235.5q0 -86 -37 -140t-115.5 -122t-124 -144.5t-52.5 -210.5h-33q0 255 142 385q93 85 118 134.5t25 129.5t-62.5 146.5t-177.5 66.5zM349 -23h-84v79h84v-79z" />
    <glyph glyph-name="at" unicode="@" horiz-adv-x="1458" 
d="M983 252q-42 0 -68.5 36t-26.5 90q0 30 3 46q-115 -172 -262 -172q-102 0 -155 58q-97 107 -97 261.5t93.5 283t258.5 128.5t235 -143l24 122h87l-122 -560q-2 -10 -2 -27q0 -22 19.5 -36t47.5 -14q33 0 98 50q66 51 114 145t48 196q0 205 -137.5 341.5t-385 136.5
t-415.5 -171.5t-168 -432.5q0 -259 160.5 -411.5t423.5 -152.5q265 0 418 107l37 -50q-167 -126 -428 -126q-448 0 -624 324q-75 138 -75 264q0 424 320 623q156 97 340 97q319 0 466 -156t147 -357.5t-116.5 -350.5t-257.5 -149zM921 678q0 104 -48.5 169.5t-135.5 65.5
q-128 0 -197 -110t-69 -229q0 -105 45 -180.5t128 -75.5q122 0 199.5 121t77.5 239z" />
    <glyph glyph-name="A" unicode="A" horiz-adv-x="1321" 
d="M872 1234v-63h-157l415 -1109h158v-62h-403v62h159l-160 441h-475l-160 -441h159v-62h-404v62h159l416 1109h-158v63h451zM430 564h431l-215 589z" />
    <glyph glyph-name="B" unicode="B" horiz-adv-x="1233" 
d="M940 654q113 -32 177 -112.5t66 -210.5q0 -130 -96.5 -230.5t-266.5 -100.5h-719v62h153v1109h-166v63h660q171 0 267 -90.5t96 -212.5q0 -187 -171 -277zM820 62q133 0 208 82t75 193t-79.5 193.5t-218.5 82.5h-470v-551h485zM796 678q112 0 173.5 72.5t61.5 203.5
q0 74 -74.5 145.5t-208.5 71.5h-413v-493h461z" />
    <glyph glyph-name="C" unicode="C" horiz-adv-x="1341" 
d="M1275 283q-178 -306 -574 -306q-244 0 -433.5 167.5t-189.5 457t179 471.5t474.5 182t459.5 -228v207h75v-347l-62 -13q-92 208 -316 282q-78 26 -190 26q-233 0 -384.5 -165.5t-151.5 -399t144 -401.5t412 -168q334 0 488 286z" />
    <glyph glyph-name="D" unicode="D" horiz-adv-x="1409" 
d="M793 1234q343 0 485 -322q60 -137 60 -275q0 -273 -144 -455t-401 -182h-693v62h166v1109h-166v63h693zM348 1171v-1109h444q220 0 341 164t121 390q0 318 -205 472q-109 82 -257 83h-444z" />
    <glyph glyph-name="E" unicode="E" horiz-adv-x="1249" 
d="M355 1164v-498h433v158h67v-400h-67v172h-433v-526h685v306h77v-376h-1019v70h175v1094h-175v70h997v-376h-76v306h-664z" />
    <glyph glyph-name="F" unicode="F" horiz-adv-x="1137" 
d="M355 1164v-521h493v174h67v-413h-67v173h-493v-507h202v-70h-459v70h175v1094h-175v70h1005v-376h-77v306h-671z" />
    <glyph glyph-name="G" unicode="G" horiz-adv-x="1356" 
d="M1180 898q-132 284 -484 284q-231 0 -382.5 -165.5t-151.5 -400t144 -401.5t413 -167q217 0 351.5 127.5t139.5 347.5h-265v66h349q0 -427 -319 -561q-119 -50 -232 -51q-392 0 -574 291q-91 146 -91 384.5t179 420.5t465.5 182t444.5 -204v183h75v-336h-62z" />
    <glyph glyph-name="H" unicode="H" horiz-adv-x="1475" 
d="M1360 1234v-63h-140v-1109h140v-62h-369v62h148v536h-802v-536h155v-62h-388v62h152v1109h-152v63h388v-63h-155v-510h802v510h-148v63h369z" />
    <glyph glyph-name="I" unicode="I" horiz-adv-x="612" 
d="M505 1234v-63h-160v-1109h160v-62h-403v62h161v1109h-161v63h403z" />
    <glyph glyph-name="J" unicode="J" horiz-adv-x="461" 
d="M107 -41q45 0 59.5 24.5t14.5 75.5v1115h-139v60h360v-60h-139v-1114q1 -151 -113 -159q-30 -2 -56 -2h-71v60h84z" />
    <glyph glyph-name="K" unicode="K" horiz-adv-x="1317" 
d="M506 1234v-60h-161v-532l596 532h-153v60h432v-60h-173l-600 -540l660 -574h170v-60h-455v60h167l-644 565v-565h161v-60h-404v60h161v1114h-161v60h404z" />
    <glyph glyph-name="L" unicode="L" horiz-adv-x="1149" 
d="M471 1234v-60h-139v-1104h628v342h76v-412h-925v70h139v1104h-139v60h360z" />
    <glyph glyph-name="M" unicode="M" horiz-adv-x="1663" 
d="M342 1088v-1026h161v-62h-401v62h161v1109h-161v63h256l481 -995l461 995h256v-63h-161v-1109h161v-62h-401v62h161v1026l-477 -1010z" />
    <glyph glyph-name="N" unicode="N" horiz-adv-x="1473" 
d="M342 1234l844 -1109v1046h-161v63h401v-63h-161v-1171h-79l-844 1114v-1052h161v-62h-401v62h161v1109h-161v63h240z" />
    <glyph glyph-name="O" unicode="O" horiz-adv-x="1427" 
d="M716 1182q-116 0 -215.5 -39t-166.5 -103.5t-108 -149.5q-64 -130 -64 -257q0 -252 145.5 -418.5t410.5 -166.5q346 0 494 294q62 126 62 234q0 363 -255 525q-127 81 -303 81zM718 -23q-303 0 -471.5 188.5t-168.5 447t168.5 450.5t471.5 192q402 0 568 -333
q72 -143 72 -286q0 -282 -168.5 -470.5t-471.5 -188.5z" />
    <glyph glyph-name="P" unicode="P" horiz-adv-x="1184" 
d="M101 62h153v1109h-166v63h681q171 0 266.5 -105t95.5 -248.5t-95.5 -253.5t-266.5 -110h-434v-455h170v-62h-404v62zM335 582h434q133 0 208 89t75 209t-75 205.5t-208 85.5h-434v-589z" />
    <glyph glyph-name="Q" unicode="Q" horiz-adv-x="1425" 
d="M422 38q-344 160 -344 614q0 127 74 274q74 149 220 239t346 90q402 0 568 -333q72 -142 72 -282q0 -267 -148.5 -450.5t-415.5 -208.5q157 -89 235.5 -89t137.5 24l25 -73q-78 -24 -138 -24q-65 0 -125 18t-99.5 41t-93 52.5t-96.5 43.5q-37 13 -119.5 13t-217.5 -65
l-18 71q73 30 137 45zM716 1182q-116 0 -215.5 -39t-166.5 -103.5t-108 -149.5q-64 -130 -64 -257q0 -252 145.5 -418.5t410.5 -166.5q346 0 494 294q62 126 62 234q0 363 -255 525q-127 81 -303 81z" />
    <glyph glyph-name="R" unicode="R" horiz-adv-x="1274" 
d="M101 62h153v1109h-166v63h640q171 0 266.5 -97.5t95.5 -229.5t-95.5 -231t-266.5 -99h-1l316 -515h174v-62h-232l-342 577h-308v-515h170v-62h-404v62zM728 642q135 0 209 74.5t74 217.5q0 80 -74.5 158.5t-208.5 78.5h-393v-529h393z" />
    <glyph glyph-name="S" unicode="S" horiz-adv-x="1106" 
d="M565 1182q-331 0 -331 -278q0 -127 87 -172.5t287.5 -65.5t320.5 -93.5t120 -226t-101 -261t-312.5 -108.5t-404.5 135v-112h-79v416h79v-220q195 -144 416 -144t293 168q20 48 20 113q0 129 -92 184.5t-303 76.5t-316.5 91t-105.5 233t118.5 250t291 87t346.5 -92v71h79
v-335h-79v181q-153 102 -334 102z" />
    <glyph glyph-name="T" unicode="T" horiz-adv-x="1071" 
d="M1073 1234v-392h-77v322h-430v-1104h176v-60h-432v60h175v1104h-423v-322h-76v392h1087z" />
    <glyph glyph-name="U" unicode="U" horiz-adv-x="1421" 
d="M1142 1171h-161v63h403v-63h-160v-767q0 -201 -161.5 -314t-376.5 -113t-369 112t-154 315v767h-161v63h403v-63h-161v-765q0 -171 129.5 -264.5t306.5 -93.5q301 0 422 202q40 67 40 156v765z" />
    <glyph glyph-name="V" unicode="V" horiz-adv-x="1159" 
d="M516 0l-440 1171h-158v63h403v-63h-157l396 -1071l392 1071h-153v63h403v-63h-156l-444 -1171h-86z" />
    <glyph glyph-name="W" unicode="W" horiz-adv-x="1827" 
d="M1239 0l-346 1044l-333 -1044h-89l-391 1171h-158v63h403v-63h-157l348 -1071l332 1071h-153v63h398v-63h-157l348 -1071l332 1071h-153v63h399v-63h-156l-380 -1171h-87z" />
    <glyph glyph-name="X" unicode="X" horiz-adv-x="1270" 
d="M470 1234v-63h-160l319 -476l318 476h-160v63h403v-63h-158l-359 -542l381 -567h160v-62h-403v62h161l-340 506l-334 -506h160v-62h-403v62h154l379 572l-360 537h-161v63h403z" />
    <glyph glyph-name="Y" unicode="Y" horiz-adv-x="1141" 
d="M-88 1171v63h403v-63h-157l397 -663l390 663h-159v63h403v-63h-156l-439 -735v-374h160v-62h-403v62h161v374l-442 735h-158z" />
    <glyph glyph-name="Z" unicode="Z" horiz-adv-x="1229" 
d="M185 70h842v306h77v-376h-1002v96l877 1068h-781v-294h-77v364h947v-81z" />
    <glyph glyph-name="bracketleft" unicode="[" horiz-adv-x="518" 
d="M420 1255v-62h-160v-1153h160v-63h-242v1278h242z" />
    <glyph glyph-name="backslash" unicode="\" horiz-adv-x="535" 
d="M496 -23h-76l-367 1278h71z" />
    <glyph glyph-name="bracketright" unicode="]" horiz-adv-x="522" 
d="M342 1255v-1278h-242v63h161v1153h-161v62h242z" />
    <glyph glyph-name="asciicircum" unicode="^" horiz-adv-x="891" 
d="M822 761h-72l-301 425l-314 -425h-74l346 494h85z" />
    <glyph glyph-name="underscore" unicode="_" horiz-adv-x="1016" 
d="M871 -62h-732v62h732v-62z" />
    <glyph glyph-name="grave" unicode="`" horiz-adv-x="420" 
d="M261 985l-157 249h127l61 -249h-31z" />
    <glyph glyph-name="a" unicode="a" horiz-adv-x="981" 
d="M342 -14q-121 0 -191.5 68t-70.5 194q0 226 321 227q126 0 273 -29v129q0 212 -238 212q-190 0 -280 -91l-36 59q103 99 337.5 99t283.5 -175q13 -46 13 -86v-533h153v-60h-217l-16 95q-149 -109 -332 -109zM161 232q0 -84 58 -131.5t157 -47.5q184 0 298 105v226
q-130 26 -244 26q-134 0 -201.5 -38t-67.5 -140z" />
    <glyph glyph-name="b" unicode="b" horiz-adv-x="1169" 
d="M338 1234v-539q135 159 348.5 159t331.5 -125.5t118 -294.5q0 -248 -193 -383t-468 -15q-94 41 -137 89q-4 -32 -7 -63l-6 -62h-231v60h165v1114h-149v60h228zM1057 388q0 189 -96.5 294t-278.5 105q-179 0 -344 -168v-426q180 -140 356.5 -140t269.5 112t93 223z" />
    <glyph glyph-name="c" unicode="c" horiz-adv-x="936" 
d="M772 600q-9 90 -81 137.5t-189 49.5q-151 0 -257 -97.5t-106 -267t107 -268t254 -100.5q216 0 344 168l23 -73q-163 -163 -357 -162q-126 1 -229 55t-163.5 153t-60.5 223q0 194 122 313t319 121q201 3 264 -102v110h76v-260h-66z" />
    <glyph glyph-name="d" unicode="d" horiz-adv-x="1165" 
d="M845 125q-125 -139 -406 -139q-112 0 -208.5 72t-138.5 166q-45 102 -45 196q0 184 118 309t331.5 125t348.5 -159v479h-204v60h283v-1174h165v-60h-231zM480 53q185 0 365 140v426q-165 168 -344 168t-277 -103.5t-98 -257.5q0 -242 198 -340q66 -33 156 -33z" />
    <glyph glyph-name="e" unicode="e" horiz-adv-x="934" 
d="M867 149q-172 -163 -366 -163t-319 123.5t-125 305t118.5 310.5t312 129t298 -131t104.5 -323h-751q17 -251 223 -326q60 -22 126 -22q202 0 346 152zM812 466q-21 214 -183 294q-55 27 -133 27q-156 0 -252 -96t-103 -225h671z" />
    <glyph glyph-name="f" unicode="f" horiz-adv-x="643" 
d="M261 1064q0 79 47.5 124.5t135.5 45.5q58 0 98 -50t42 -118h-75q0 106 -81 106q-38 0 -63 -31.5t-25 -74.5v-230h203v-57h-203v-719h191v-60h-425v60h155v719h-155v57h155v228z" />
    <glyph glyph-name="g" unicode="g" horiz-adv-x="1110" 
d="M831 120q-129 -134 -337 -134t-322.5 129t-114.5 299t106.5 305t294.5 135t322 -96q34 -24 51 -43l13 125h230v-60h-164v-751q0 -233 -193 -301q-111 -39 -239.5 -42t-216.5 -3v69h149q249 0 335 66t86 194v108zM831 647q-177 140 -348 140t-259 -111t-87 -224
q2 -179 92.5 -289t252.5 -110q152 0 226 46.5t123 90.5v457z" />
    <glyph glyph-name="h" unicode="h" horiz-adv-x="1198" 
d="M86 1176v58h252v-498q168 93 236.5 105.5t124.5 12.5q134 0 197.5 -70.5t63.5 -166.5v-557h175v-60h-412v60h158v541q0 186 -194 186q-126 0 -268 -78q-40 -22 -81 -45v-604h192v-60h-433v60h162v1116h-173z" />
    <glyph glyph-name="i" unicode="i" horiz-adv-x="582" 
d="M300 1092q-26 0 -43.5 16t-17.5 40q0 57 62 57q28 0 45.5 -15.5t17.5 -40.5t-18 -41t-46 -16zM115 776v60h229v-776h154v-60h-383v60h150v716h-150z" />
    <glyph glyph-name="j" unicode="j" horiz-adv-x="408" 
d="M162 779h-137v57h216v-858q1 -123 -23 -164q-49 -85 -191 -85h-80v60h78q94 0 115.5 37t21.5 140v813zM191.5 1092q-26.5 0 -44 16t-17.5 40q0 57 62 57t62 -57q0 -24 -18 -40t-44.5 -16z" />
    <glyph glyph-name="k" unicode="k" horiz-adv-x="1124" 
d="M94 1174v60h265v-780l394 322h-124v60h385v-60h-159l-403 -337l446 -379h151v-60h-383v60h123l-430 371v-371h184v-60h-449v60h186v1114h-186z" />
    <glyph glyph-name="l" unicode="l" horiz-adv-x="612" 
d="M94 1174v60h265v-1174h184v-60h-449v60h186v1114h-186z" />
    <glyph glyph-name="m" unicode="m" horiz-adv-x="1659" 
d="M1201 854q99 0 155 -63t56 -174v-557h176v-60h-412v60h157v541q-1 135 -71 171q-48 20 -110 14t-110 -28q-63 -29 -167 -94q3 -24 3 -47v-557h176v-60h-412v60h157v541q-1 135 -71 171q-46 19 -108.5 14t-109.5 -27q-59 -28 -166 -95v-604h156v-60h-397v60h162v719h-173
v57h240l9 -100q148 93 211.5 105.5t108.5 12.5q143 0 197 -127q183 127 343 127z" />
    <glyph glyph-name="n" unicode="n" horiz-adv-x="1202" 
d="M879 601q-1 97 -44 140.5t-137 45.5q-167 0 -337 -119v-608h182v-60h-443v60h181v719h-180v57h248l8 -100q179 118 361 118q112 0 176 -61.5t64 -175.5v-557h175v-60h-411v60h157v541z" />
    <glyph glyph-name="o" unicode="o" horiz-adv-x="1004" 
d="M767.5 690.5q-111.5 96.5 -260.5 96.5t-258.5 -97t-109.5 -268.5t109 -270t259 -98.5t261 98.5t111 270.5t-111.5 268.5zM824 102q-135 -116 -317.5 -116t-316 116.5t-133.5 320t133 317.5t316 114t318 -114t135 -318t-135 -320z" />
    <glyph glyph-name="p" unicode="p" horiz-adv-x="1120" 
d="M281 715q162 139 406 139q112 0 208.5 -72t138.5 -166q45 -102 45 -196q0 -184 -118 -309t-331.5 -125t-348.5 159v-407h147v-60h-375v60h149v1042h-165v60h231zM646 787q-185 0 -365 -140v-426q165 -168 344 -168t277 103.5t98 257.5q0 242 -198 340q-66 33 -156 33z
" />
    <glyph glyph-name="q" unicode="q" horiz-adv-x="1141" 
d="M474 854q112 0 220.5 -40.5t160.5 -98.5l14 125h230v-60h-164v-1042h148v-60h-375v60h147v359q-135 -111 -348.5 -111t-331.5 125.5t-118 294.5q-1 248 181 375q104 73 236 73zM137 452q0 -191 97.5 -295t284.5 -104t336 110v484q-180 140 -356 140t-269 -112t-93 -223z
" />
    <glyph glyph-name="r" unicode="r" horiz-adv-x="748" 
d="M574 787q-68 0 -117 -47.5t-71.5 -118t-22.5 -153.5v-408h183v-60h-446v60h184v719h-183v57h250l12 -184q24 87 80.5 144.5t142.5 57.5q81 0 170 -40l-12 -68q-84 41 -170 41z" />
    <glyph glyph-name="s" unicode="s" horiz-adv-x="874" 
d="M811 228q0 -85 -53 -141t-132 -78.5t-179 -22.5q-163 0 -250 87v-73h-68v268h68v-100q56 -115 253 -114.5t260 94.5q21 32 21 95q0 126 -209 149.5t-299 68.5t-90 159q-1 172 187 220q54 14 110 13q168 0 254 -77v60h70v-264h-70v123q-74 91 -232 91t-217 -90
q-20 -30 -20 -76q0 -82 93 -116q45 -17 195.5 -38.5t229 -70.5t78.5 -167z" />
    <glyph glyph-name="t" unicode="t" horiz-adv-x="547" 
d="M37 781v55h125v312l79 18v-330h199v-55h-199v-543q0 -103 21.5 -140.5t115.5 -37.5h78v-60h-81q-197 0 -209 160q-4 44 -4 90v531h-125z" />
    <glyph glyph-name="u" unicode="u" horiz-adv-x="1102" 
d="M268 239q0 -98 46 -141t145 -45q135 0 325 120v603h-174v60h253v-778h173v-58h-240l-8 104q-154 -92 -221.5 -105t-160.5 -13q-92 0 -154.5 70.5t-62.5 166.5v553h-175v60h254v-597z" />
    <glyph glyph-name="v" unicode="v" horiz-adv-x="1032" 
d="M217 776l302 -705l278 705h-143v60h392v-60h-159l-320 -776h-90l-342 776h-164v60h398v-60h-152z" />
    <glyph glyph-name="w" unicode="w" horiz-adv-x="1554" 
d="M217 776l246 -711l261 711h-143v60h380v-60h-146l263 -711l238 711h-142v60h392v-60h-160l-279 -776h-90l-263 710l-265 -710h-90l-280 776h-164v60h395v-60h-153z" />
    <glyph glyph-name="x" unicode="x" horiz-adv-x="1182" 
d="M327 776l250 -295l247 295h-148v60h397v-60h-159l-291 -350l310 -366h151v-60h-395v60h164l-269 318l-263 -318h138v-60h-383v60h150l311 373l-288 343h-149v60h384v-60h-157z" />
    <glyph glyph-name="y" unicode="y" horiz-adv-x="1026" 
d="M139 -206q143 0 204.5 15t93.5 87l70 162h-56l-320 718h-164v60h399v-60h-148l299 -687l276 687h-143v60h393v-60h-159l-374 -903q-60 -139 -246 -145q-58 -2 -125 -2v68z" />
    <glyph glyph-name="z" unicode="z" horiz-adv-x="909" 
d="M106 0v67l576 709h-471v-193h-69v253h623v-72l-569 -706h518v219h69v-277h-677z" />
    <glyph glyph-name="braceleft" unicode="{" horiz-adv-x="555" 
d="M301 212q0 -110 33.5 -145.5t140.5 -35.5v-54h-65q-185 -1 -192 207q-2 64 -2 180t-22 163t-126 47v84q104 0 126 47t22 221.5t22 230.5q38 98 172 98h65v-54q-108 0 -141 -35.5t-33 -202.5t-25 -254t-112 -93q121 -8 133 -224q4 -71 4 -180z" />
    <glyph glyph-name="bar" unicode="|" horiz-adv-x="426" 
d="M178 1255h68v-1278h-68v1278z" />
    <glyph glyph-name="braceright" unicode="}" horiz-adv-x="557" 
d="M260 1022q0 111 -32.5 145t-141.5 34v54h65q186 1 193 -207q2 -64 2 -180t22 -163t125 -47v-84q-103 0 -125 -47t-22 -221.5t-22 -230.5q-38 -98 -173 -98h-65v54q108 0 141 35.5t33 202.5t26 254t111 93q-121 8 -133 224q-4 72 -4 182z" />
    <glyph glyph-name="asciitilde" unicode="~" horiz-adv-x="788" 
d="M249 1157q31 0 157 -23.5t155 -23.5q48 0 63 43h37q-15 -131 -124 -131q-59 0 -170 23.5t-151.5 23.5t-52.5 -41h-38q15 129 124 129z" />
    <glyph glyph-name="exclamdown" unicode="&#xa1;" horiz-adv-x="430" 
d="M164 1171h103l2 -105h-105v105zM231 827l29 -465v-362h-89v362l29 465h31z" />
    <glyph glyph-name="cent" unicode="&#xa2;" horiz-adv-x="950" 
d="M865 149q-163 -163 -371 -163q-55 2 -102 13l-61 -213h-63l67 229q-193 71 -259 263q-22 64 -21 148q0 182 119.5 303t323.5 125q35 0 79 -7l63 217h58l-66 -230q92 -27 128 -84v110h76v-260h-66q-16 135 -156 173l-203 -708q44 -11 87 -11q216 0 344 168zM558 783
q-28 4 -79 4q-130 0 -236 -97.5t-106 -275.5q0 -116 59 -203.5t159 -127.5z" />
    <glyph glyph-name="sterling" unicode="&#xa3;" horiz-adv-x="1096" 
d="M291 960q0 136 98.5 215.5t248.5 79.5q152 0 236.5 -73t84.5 -214h-76q0 221 -234 221q-271 0 -271 -235q0 -108 82 -256q23 -42 47 -87h375v-49h-359q46 -130 46 -229t-26 -177q87 -112 237 -112q185 0 185 218h50q3 -23 3 -88.5t-60 -134t-195 -68.5t-237 136
q-65 -154 -271 -154t-206 174q0 88 68 130.5t177 42.5q116 0 187 -96q10 48 10 132.5t-59 225.5h-248v49h223q-20 39 -41 79q-75 143 -75 270zM281 244q-162 0 -162 -135q0 -44 53 -82q25 -19 57.5 -23t65 4t59 19.5t50.5 26.5q45 30 62 100q-73 90 -185 90z" />
    <glyph glyph-name="currency" unicode="&#xa4;" horiz-adv-x="1073" 
d="M743 647q-86 -60 -205 -60t-211 59l-106 -105l-82 82l98 98q-90 108 -90 248.5t88 238.5l-96 98l82 82l104 -103q92 59 209.5 59t211.5 -61l105 105l83 -82l-99 -100q84 -108 84 -241q0 -137 -87 -241l102 -101l-83 -82zM532 1247q-122 0 -200.5 -75.5t-78.5 -206.5
q0 -135 86 -210t169 -75q309 0 309 311q0 105 -86.5 180.5t-198.5 75.5z" />
    <glyph glyph-name="yen" unicode="&#xa5;" horiz-adv-x="1266" 
d="M1014 226h-336v-164h160v-62h-403v62h161v164h-331v62h331v145h-331v63h295l-406 675h-158v63h403v-63h-157l397 -663l390 663h-159v63h403v-63h-156l-403 -675h300v-63h-336v-145h336v-62z" />
    <glyph glyph-name="brokenbar" unicode="&#xa6;" horiz-adv-x="414" 
d="M172 1255h68v-540h-68v540zM172 517h68v-540h-68v540z" />
    <glyph glyph-name="section" unicode="&#xa7;" horiz-adv-x="963" 
d="M512 104q98 0 167.5 39.5t69.5 114.5q-1 70 -93 106q-52 20 -198 41t-224 62.5t-78 150.5t105 164q-105 54 -105 162q0 146 188 186q54 12 109 11q168 0 254 -77v60h70v-228h-70v87q-74 91 -232.5 91t-216.5 -70q-20 -24 -20 -64q0 -74 93 -108q45 -17 195 -38t229 -65.5
t78 -155t-103 -166.5q96 -55 96 -159q0 -140 -176 -192q-62 -18 -152 -19q-190 0 -278 88v-73h-68v231h68v-63q56 -116 292 -116zM674 439q80 36 80 130q0 106 -160 141q-19 4 -130.5 21.5t-139.5 26.5q-86 -33 -86 -144q0 -42 30 -71.5t84 -45.5t106 -25t118 -17.5
t98 -15.5z" />
    <glyph glyph-name="dieresis" unicode="&#xa8;" horiz-adv-x="608" 
d="M473 1046v-106h-100v106h100zM231 1046v-106h-100v106h100z" />
    <glyph glyph-name="copyright" unicode="&#xa9;" horiz-adv-x="1458" 
d="M1040 379q-136 -138 -300 -137q-80 0 -150.5 27t-121.5 73.5t-81 114t-30 145.5q0 252 217 340q69 28 192.5 29t178.5 -76v82h71v-223h-61q-17 156 -219.5 156t-277.5 -175q-25 -58 -25 -162.5t88 -185t239 -81.5t258 142zM308.5 1024q-150.5 -175 -150.5 -412
t148.5 -407.5t418 -170.5t422 173.5t152.5 409.5q0 232 -152.5 407t-420 175t-418 -175zM728 -23q-404 0 -570 331q-72 143 -72 308q0 257 169 449.5t473 192.5q404 0 570 -333q72 -143 72 -309q0 -258 -168.5 -448.5t-473.5 -190.5z" />
    <glyph glyph-name="ordfeminine" unicode="&#xaa;" horiz-adv-x="805" 
d="M332 641q-100 0 -154.5 49.5t-54.5 144.5q0 161 229 161q91 0 179 -18v77q0 137 -141 137t-207 -69l-36 58q76 74 245 74q102 0 157 -47.5t55 -140.5v-357h106v-60h-168l-9 58q-98 -67 -201 -67zM384 932q-47 0 -78 -4t-57.5 -16t-39 -35.5t-12.5 -59.5
q0 -111 129.5 -111t204.5 66v145q-60 15 -147 15z" />
    <glyph glyph-name="guillemotleft" unicode="&#xab;" horiz-adv-x="778" 
d="M616 1043h48l-213 -379l213 -383h-48l-273 383zM348 1043h48l-212 -379l212 -383h-48l-272 383z" />
    <glyph glyph-name="logicalnot" unicode="&#xac;" horiz-adv-x="987" 
d="M838 697v-393h-77v313h-661v80h738z" />
    <glyph glyph-name="uni00AD" unicode="&#xad;" 
 />
    <glyph glyph-name="registered" unicode="&#xae;" horiz-adv-x="1458" 
d="M998 791q0 -85 -55 -140t-141 -61l168 -274h102v-58h-151l-197 332h-158v-274h96v-58h-251v58h86v615h-93v57h378q93 0 154.5 -55t61.5 -142zM782 648q71 0 111 40t40 116q0 42 -40.5 84.5t-110.5 42.5h-216v-283h216zM308.5 1024q-150.5 -175 -150.5 -412t148.5 -407.5
t418 -170.5t422 173.5t152.5 409.5q0 232 -152.5 407t-420 175t-418 -175zM728 -23q-404 0 -570 331q-72 143 -72 308q0 257 169 449.5t473 192.5q404 0 570 -333q72 -143 72 -309q0 -258 -168.5 -448.5t-473.5 -190.5z" />
    <glyph glyph-name="macron" unicode="&#xaf;" horiz-adv-x="662" 
d="M131 1123h391v-65h-391v65z" />
    <glyph glyph-name="degree" unicode="&#xb0;" horiz-adv-x="813" 
d="M593 1052q0 85 -52 136t-144 51q-88 1 -141 -48t-55 -139q0 -85 52 -136t144 -51q88 -1 141 48t55 139zM397 768q-122 0 -187 54q-120 98 -120 230q0 133 92.5 208.5t214.5 75.5t187 -54q120 -98 120 -230q0 -133 -92.5 -208.5t-214.5 -75.5z" />
    <glyph glyph-name="plusminus" unicode="&#xb1;" horiz-adv-x="901" 
d="M840 0h-774v62h774v-62zM486 598h356v-64h-356v-396h-62v396h-356v64h356v384h62v-384z" />
    <glyph glyph-name="twosuperior" unicode="&#xb2;" horiz-adv-x="811" 
d="M151 656q0 85 76 155t163 70q290 0 290 -250q0 -158 -341 -467q-68 -62 -98 -92h398v-72h-506v70q18 18 60 55q409 360 409 510q0 177 -184 177q-84 0 -139 -48t-55 -133q0 -36 13 -96h-78q-8 35 -8 121z" />
    <glyph glyph-name="threesuperior" unicode="&#xb3;" horiz-adv-x="811" 
d="M589 652q0 73 -61.5 116.5t-145.5 43.5q-150 0 -207 -110l-66 30q77 150 275 150q109 0 171 -45q112 -81 112 -200t-129 -173q144 -53 144 -214q0 -78 -43.5 -139t-114 -92.5t-152.5 -30.5q-89 0 -167 48.5t-113 124.5l60 39q71 -147 224 -148q66 0 117 22t82 69.5
t31 114.5q0 50 -21 84t-62 51t-89 24t-114 7h-36v74h34q172 0 221.5 39.5t49.5 114.5z" />
    <glyph glyph-name="acute" unicode="&#xb4;" horiz-adv-x="414" 
d="M125 985l59 249h126l-154 -249h-31z" />
    <glyph glyph-name="mu" unicode="&#xb5;" horiz-adv-x="1190" 
d="M529 53q135 0 325 120v603h-174v60h253v-778h173v-58h-240l-8 104q-154 -92 -221.5 -105t-149 -13t-148.5 54v-272h-80v1008h-175v60h254l1 -628q9 -155 190 -155z" />
    <glyph glyph-name="paragraph" unicode="&#xb6;" horiz-adv-x="1020" 
d="M709 661h-196v-684h-81v684h-36q-159 0 -249 88t-90 203t90 198.5t249 83.5h560v-63h-166v-1194h-81v684z" />
    <glyph glyph-name="periodcentered" unicode="&#xb7;" horiz-adv-x="369" 
d="M242 815v-120h-117v120h117z" />
    <glyph glyph-name="cedilla" unicode="&#xb8;" horiz-adv-x="430" 
d="M336 -188q0 -88 -135 -88q-49 0 -101 20v46q47 -14 89.5 -14t42.5 35.5t-101 44.5l58 150h50l-39 -114h12q61 0 92.5 -28t31.5 -52z" />
    <glyph glyph-name="onesuperior" unicode="&#xb9;" horiz-adv-x="551" 
d="M439 61v-61h-312v61h121v726l-104 -20l-17 65l195 37v-808h117z" />
    <glyph glyph-name="ordmasculine" unicode="&#xba;" horiz-adv-x="874" 
d="M435 706q115 0 181 70.5t66 199.5q-1 58 -36.5 108.5t-92.5 79t-118 28.5q-159 0 -223 -137q-21 -45 -21 -132q0 -89 74.5 -153t169.5 -64zM660 723.5q-95 -82.5 -225 -82.5q-129 1 -196 59q-122 105 -122 249.5t94.5 225t223.5 80.5q131 1 198 -57q122 -105 122 -248.5
t-95 -226z" />
    <glyph glyph-name="guillemotright" unicode="&#xbb;" horiz-adv-x="778" 
d="M437 664l-272 -383h-48l212 383l-212 379h48zM705 664l-273 -383h-48l213 383l-213 379h48z" />
    <glyph glyph-name="onequarter" unicode="&#xbc;" horiz-adv-x="1348" 
d="M398 426v-61h-312v61h121v726l-104 -20l-17 65l195 37v-808h117zM717 316l338 550h92v-543h178v-63h-178v-199h112v-61h-297v61h112v199h-348zM1074 323v445q-28 -47 -121.5 -201.5t-145.5 -243.5h267zM781 1255h71l-368 -1278h-75z" />
    <glyph glyph-name="onehalf" unicode="&#xbd;" horiz-adv-x="1339" 
d="M398 426v-61h-312v61h121v726l-104 -20l-17 65l195 37v-808h117zM1012 881q120 0 190.5 -66t70.5 -184q0 -158 -341 -467q-68 -62 -98 -92h398v-72h-506v70q18 18 60 55q409 361 409 515q0 172 -207 172q-110 0 -156 -110q-25 -62 -2 -167h-78q-8 35 -8 122t75 155.5
t193 68.5zM742 1255h71l-368 -1278h-75z" />
    <glyph glyph-name="threequarters" unicode="&#xbe;" horiz-adv-x="1600" 
d="M555 1001q0 84 -58.5 130t-148.5 46q-150 0 -207 -110l-66 30q77 150 275 150q109 0 196 -63t87 -182t-129 -173q144 -53 144 -234q0 -94 -89 -168.5t-221 -74.5q-89 0 -167 48.5t-113 125.5l60 39q71 -147 238 -147q83 0 149.5 54.5t66.5 130.5q0 70 -24 105.5t-78 59.5
q-51 22 -184 21h-36v74h34q125 -1 165 13q106 35 106 125zM928 316l338 550h92v-543h178v-63h-178v-199h112v-61h-297v61h112v199h-348zM1285 323v445q-28 -47 -121.5 -201.5t-145.5 -243.5h267zM1016 1255h71l-368 -1278h-75z" />
    <glyph glyph-name="questiondown" unicode="&#xbf;" horiz-adv-x="692" 
d="M378 49q183 0 244 147l61 -36q-76 -183 -295 -184q-147 0 -237 82.5t-90 235.5q0 86 37 140t115.5 122t123 143t53.5 212h33q-1 -255 -143 -385q-93 -85 -117.5 -134.5t-24.5 -129.5t62.5 -146.5t177.5 -66.5zM354 1223h84v-79h-84v79z" />
    <glyph glyph-name="Agrave" unicode="&#xc0;" horiz-adv-x="1321" 
d="M631 1377l-157 249h127l61 -249h-31zM872 1234v-63h-157l415 -1109h158v-62h-403v62h159l-160 441h-475l-160 -441h159v-62h-404v62h159l416 1109h-158v63h451zM430 564h431l-215 589z" />
    <glyph glyph-name="Aacute" unicode="&#xc1;" horiz-adv-x="1321" 
d="M631 1377l59 249h126l-154 -249h-31zM872 1234v-63h-157l415 -1109h158v-62h-403v62h159l-160 441h-475l-160 -441h159v-62h-404v62h159l416 1109h-158v63h451zM430 564h431l-215 589z" />
    <glyph glyph-name="Acircumflex" unicode="&#xc2;" horiz-adv-x="1321" 
d="M456 1377l139 273h95l146 -273h-89l-104 224l-105 -224h-82zM872 1234v-63h-157l415 -1109h158v-62h-403v62h159l-160 441h-475l-160 -441h159v-62h-404v62h159l416 1109h-158v63h451zM430 564h431l-215 589z" />
    <glyph glyph-name="Atilde" unicode="&#xc3;" horiz-adv-x="1321" 
d="M538 1512q24 0 122.5 -23.5t122.5 -23.5q43 0 58 43h37q-15 -131 -124 -131q-45 0 -131 23.5t-122.5 23.5t-48.5 -41h-38q15 129 124 129zM872 1234v-63h-157l415 -1109h158v-62h-403v62h159l-160 441h-475l-160 -441h159v-62h-404v62h159l416 1109h-158v63h451zM430 564
h431l-215 589z" />
    <glyph glyph-name="Adieresis" unicode="&#xc4;" horiz-adv-x="1321" 
d="M817 1483v-106h-100v106h100zM575 1483v-106h-100v106h100zM872 1234v-63h-157l415 -1109h158v-62h-403v62h159l-160 441h-475l-160 -441h159v-62h-404v62h159l416 1109h-158v63h451zM430 564h431l-215 589z" />
    <glyph glyph-name="Aring" unicode="&#xc5;" horiz-adv-x="1321" 
d="M768 1415q0 48 -32 86.5t-76 38.5q-137 0 -137 -139q0 -45 37 -79t86 -34q54 0 88 36.5t34 90.5zM646 1585q74 0 122 -46t48 -125q0 -74 -45.5 -121t-124.5 -49q-75 -1 -123 44.5t-48 125.5q0 73 46 122t125 49zM872 1234v-63h-157l415 -1109h158v-62h-403v62h159
l-160 441h-475l-160 -441h159v-62h-404v62h159l416 1109h-158v63h451zM430 564h431l-215 589z" />
    <glyph glyph-name="AE" unicode="&#xc6;" horiz-adv-x="1970" 
d="M918 1164l94 -498h432l-30 158h67l74 -400h-67l-31 172h-432l98 -526h683l-56 306h77l69 -376h-1028l12 62h158l-77 441h-475l-242 -441h158l-12 -62h-402l12 62h157l624 1109h-158l12 63h1010l70 -376h-77l-56 306h-664zM519 564h430l-104 589z" />
    <glyph glyph-name="Ccedilla" unicode="&#xc7;" horiz-adv-x="1341" 
d="M798 -208q0 -88 -135 -88q-49 0 -101 20v46q47 -14 89.5 -14t42.5 35.5t-101 44.5l58 150h50l-39 -114h12q61 0 92.5 -28t31.5 -52zM1275 283q-178 -306 -574 -306q-244 0 -433.5 167.5t-189.5 457t179 471.5t474.5 182t459.5 -228v207h75v-347l-62 -13q-92 208 -316 282
q-78 26 -190 26q-233 0 -384.5 -165.5t-151.5 -399t144 -401.5t412 -168q334 0 488 286z" />
    <glyph glyph-name="Egrave" unicode="&#xc8;" horiz-adv-x="1249" 
d="M592 1377l-157 249h127l61 -249h-31zM355 1164v-498h433v158h67v-400h-67v172h-433v-526h685v306h77v-376h-1019v70h175v1094h-175v70h997v-376h-76v306h-664z" />
    <glyph glyph-name="Eacute" unicode="&#xc9;" horiz-adv-x="1249" 
d="M592 1377l59 249h126l-154 -249h-31zM355 1164v-498h433v158h67v-400h-67v172h-433v-526h685v306h77v-376h-1019v70h175v1094h-175v70h997v-376h-76v306h-664z" />
    <glyph glyph-name="Ecircumflex" unicode="&#xca;" horiz-adv-x="1249" 
d="M418 1377l139 273h95l146 -273h-89l-104 224l-105 -224h-82zM355 1164v-498h433v158h67v-400h-67v172h-433v-526h685v306h77v-376h-1019v70h175v1094h-175v70h997v-376h-76v306h-664z" />
    <glyph glyph-name="Edieresis" unicode="&#xcb;" horiz-adv-x="1249" 
d="M779 1483v-106h-100v106h100zM537 1483v-106h-100v106h100zM355 1164v-498h433v158h67v-400h-67v172h-433v-526h685v306h77v-376h-1019v70h175v1094h-175v70h997v-376h-76v306h-664z" />
    <glyph glyph-name="Igrave" unicode="&#xcc;" horiz-adv-x="612" 
d="M288 1377l-157 249h127l61 -249h-31zM505 1234v-63h-160v-1109h160v-62h-403v62h161v1109h-161v63h403z" />
    <glyph glyph-name="Iacute" unicode="&#xcd;" horiz-adv-x="612" 
d="M288 1377l59 249h126l-154 -249h-31zM505 1234v-63h-160v-1109h160v-62h-403v62h161v1109h-161v63h403z" />
    <glyph glyph-name="Icircumflex" unicode="&#xce;" horiz-adv-x="612" 
d="M114 1377l139 273h95l146 -273h-89l-104 224l-105 -224h-82zM505 1234v-63h-160v-1109h160v-62h-403v62h161v1109h-161v63h403z" />
    <glyph glyph-name="Idieresis" unicode="&#xcf;" horiz-adv-x="612" 
d="M475 1483v-106h-100v106h100zM233 1483v-106h-100v106h100zM505 1234v-63h-160v-1109h160v-62h-403v62h161v1109h-161v63h403z" />
    <glyph glyph-name="Eth" unicode="&#xd0;" horiz-adv-x="1434" 
d="M791 1234q343 0 485 -322q60 -137 60 -275q0 -273 -144 -455t-401 -182h-693v62h166v535h-155v65h155v509h-166v63h693zM346 662h154v-65h-154v-535h444q220 0 341 164t121 390q0 318 -205 472q-109 82 -257 83h-444v-509z" />
    <glyph glyph-name="Ntilde" unicode="&#xd1;" horiz-adv-x="1473" 
d="M656 1512q24 0 122.5 -23.5t122.5 -23.5q43 0 58 43h37q-15 -131 -124 -131q-45 0 -131 23.5t-122.5 23.5t-48.5 -41h-38q15 129 124 129zM342 1234l844 -1109v1046h-161v63h401v-63h-161v-1171h-79l-844 1114v-1052h161v-62h-401v62h161v1109h-161v63h240z" />
    <glyph glyph-name="Ograve" unicode="&#xd2;" horiz-adv-x="1427" 
d="M703 1377l-157 249h127l61 -249h-31zM716 1182q-116 0 -215.5 -39t-166.5 -103.5t-108 -149.5q-64 -130 -64 -257q0 -252 145.5 -418.5t410.5 -166.5q346 0 494 294q62 126 62 234q0 363 -255 525q-127 81 -303 81zM718 -23q-303 0 -471.5 188.5t-168.5 447t168.5 450.5
t471.5 192q402 0 568 -333q72 -143 72 -286q0 -282 -168.5 -470.5t-471.5 -188.5z" />
    <glyph glyph-name="Oacute" unicode="&#xd3;" horiz-adv-x="1427" 
d="M703 1377l59 249h126l-154 -249h-31zM716 1182q-116 0 -215.5 -39t-166.5 -103.5t-108 -149.5q-64 -130 -64 -257q0 -252 145.5 -418.5t410.5 -166.5q346 0 494 294q62 126 62 234q0 363 -255 525q-127 81 -303 81zM718 -23q-303 0 -471.5 188.5t-168.5 447t168.5 450.5
t471.5 192q402 0 568 -333q72 -143 72 -286q0 -282 -168.5 -470.5t-471.5 -188.5z" />
    <glyph glyph-name="Ocircumflex" unicode="&#xd4;" horiz-adv-x="1427" 
d="M528 1377l139 273h95l146 -273h-89l-104 224l-105 -224h-82zM716 1182q-116 0 -215.5 -39t-166.5 -103.5t-108 -149.5q-64 -130 -64 -257q0 -252 145.5 -418.5t410.5 -166.5q346 0 494 294q62 126 62 234q0 363 -255 525q-127 81 -303 81zM718 -23q-303 0 -471.5 188.5
t-168.5 447t168.5 450.5t471.5 192q402 0 568 -333q72 -143 72 -286q0 -282 -168.5 -470.5t-471.5 -188.5z" />
    <glyph glyph-name="Otilde" unicode="&#xd5;" horiz-adv-x="1427" 
d="M610 1512q24 0 122.5 -23.5t122.5 -23.5q43 0 58 43h37q-15 -131 -124 -131q-45 0 -131 23.5t-122.5 23.5t-48.5 -41h-38q15 129 124 129zM716 1182q-116 0 -215.5 -39t-166.5 -103.5t-108 -149.5q-64 -130 -64 -257q0 -252 145.5 -418.5t410.5 -166.5q346 0 494 294
q62 126 62 234q0 363 -255 525q-127 81 -303 81zM718 -23q-303 0 -471.5 188.5t-168.5 447t168.5 450.5t471.5 192q402 0 568 -333q72 -143 72 -286q0 -282 -168.5 -470.5t-471.5 -188.5z" />
    <glyph glyph-name="Odieresis" unicode="&#xd6;" horiz-adv-x="1427" 
d="M889 1483v-106h-100v106h100zM647 1483v-106h-100v106h100zM716 1182q-116 0 -215.5 -39t-166.5 -103.5t-108 -149.5q-64 -130 -64 -257q0 -252 145.5 -418.5t410.5 -166.5q346 0 494 294q62 126 62 234q0 363 -255 525q-127 81 -303 81zM718 -23q-303 0 -471.5 188.5
t-168.5 447t168.5 450.5t471.5 192q402 0 568 -333q72 -143 72 -286q0 -282 -168.5 -470.5t-471.5 -188.5z" />
    <glyph glyph-name="multiply" unicode="&#xd7;" horiz-adv-x="637" 
d="M122 812l203 -202l204 204l44 -45l-202 -204l202 -204l-44 -44l-204 204l-203 -203l-44 44l203 203l-203 203z" />
    <glyph glyph-name="Oslash" unicode="&#xd8;" horiz-adv-x="1440" 
d="M1160 1095q202 -186 202 -463.5t-168.5 -466t-471.5 -188.5q-205 0 -357 95l-89 -114l-48 34l89 113q-235 183 -235 508q0 258 168.5 450t471.5 192q234 0 396 -124l86 111l46 -32zM1069 1069q-146 113 -347 113q-350 0 -494 -296q-62 -127 -62 -232q0 -332 197 -489z
M411 131q132 -83 267 -83q390 0 535 289q65 130 65 261q0 268 -167 433z" />
    <glyph glyph-name="Ugrave" unicode="&#xd9;" horiz-adv-x="1421" 
d="M677 1377l-157 249h127l61 -249h-31zM1142 1171h-161v63h403v-63h-160v-767q0 -201 -161.5 -314t-376.5 -113t-369 112t-154 315v767h-161v63h403v-63h-161v-765q0 -171 129.5 -264.5t306.5 -93.5q301 0 422 202q40 67 40 156v765z" />
    <glyph glyph-name="Uacute" unicode="&#xda;" horiz-adv-x="1421" 
d="M677 1377l59 249h126l-154 -249h-31zM1142 1171h-161v63h403v-63h-160v-767q0 -201 -161.5 -314t-376.5 -113t-369 112t-154 315v767h-161v63h403v-63h-161v-765q0 -171 129.5 -264.5t306.5 -93.5q301 0 422 202q40 67 40 156v765z" />
    <glyph glyph-name="Ucircumflex" unicode="&#xdb;" horiz-adv-x="1421" 
d="M503 1377l139 273h95l146 -273h-89l-104 224l-105 -224h-82zM1142 1171h-161v63h403v-63h-160v-767q0 -201 -161.5 -314t-376.5 -113t-369 112t-154 315v767h-161v63h403v-63h-161v-765q0 -171 129.5 -264.5t306.5 -93.5q301 0 422 202q40 67 40 156v765z" />
    <glyph glyph-name="Udieresis" unicode="&#xdc;" horiz-adv-x="1421" 
d="M864 1483v-106h-100v106h100zM622 1483v-106h-100v106h100zM1142 1171h-161v63h403v-63h-160v-767q0 -201 -161.5 -314t-376.5 -113t-369 112t-154 315v767h-161v63h403v-63h-161v-765q0 -171 129.5 -264.5t306.5 -93.5q301 0 422 202q40 67 40 156v765z" />
    <glyph glyph-name="Yacute" unicode="&#xdd;" horiz-adv-x="1141" 
d="M535 1377l59 249h126l-154 -249h-31zM-88 1171v63h403v-63h-157l397 -663l390 663h-159v63h403v-63h-156l-439 -735v-374h160v-62h-403v62h161v374l-442 735h-158z" />
    <glyph glyph-name="Thorn" unicode="&#xde;" horiz-adv-x="1130" 
d="M338 1042h398q163 0 250.5 -88.5t87.5 -214t-91 -222t-247 -96.5h-398v-359h170v-62h-404v62h153v1109h-151v63h387v-63h-155v-129zM736 486q121 0 190 73.5t69 207.5q0 73 -67.5 142.5t-191.5 69.5h-398v-493h398z" />
    <glyph glyph-name="germandbls" unicode="&#xdf;" horiz-adv-x="1081" 
d="M694 676q150 -6 252 -100t102 -239q0 -237 -267 -311q-92 -26 -219 -26v62q407 0 407 275q0 207 -213 279q-76 26 -186 25v44q125 6 194.5 86t69.5 179q0 110 -77 170t-203 60q-147 0 -203 -77t-56 -247v-794h116v-62h-350v62h153v789q0 404 349 404q101 0 180 -38.5
t124.5 -111.5t44.5 -169q0 -98 -59.5 -169t-158.5 -91z" />
    <glyph glyph-name="agrave" unicode="&#xe0;" horiz-adv-x="981" 
d="M478 976l-157 249h127l61 -249h-31zM342 -14q-121 0 -191.5 68t-70.5 194q0 226 321 227q126 0 273 -29v129q0 212 -238 212q-190 0 -280 -91l-36 59q103 99 337.5 99t283.5 -175q13 -46 13 -86v-533h153v-60h-217l-16 95q-149 -109 -332 -109zM161 232q0 -84 58 -131.5
t157 -47.5q184 0 298 105v226q-130 26 -244 26q-134 0 -201.5 -38t-67.5 -140z" />
    <glyph glyph-name="aacute" unicode="&#xe1;" horiz-adv-x="981" 
d="M478 976l59 249h126l-154 -249h-31zM342 -14q-121 0 -191.5 68t-70.5 194q0 226 321 227q126 0 273 -29v129q0 212 -238 212q-190 0 -280 -91l-36 59q103 99 337.5 99t283.5 -175q13 -46 13 -86v-533h153v-60h-217l-16 95q-149 -109 -332 -109zM161 232q0 -84 58 -131.5
t157 -47.5q184 0 298 105v226q-130 26 -244 26q-134 0 -201.5 -38t-67.5 -140z" />
    <glyph glyph-name="acircumflex" unicode="&#xe2;" horiz-adv-x="981" 
d="M272 976l139 273h95l146 -273h-89l-104 224l-105 -224h-82zM342 -14q-121 0 -191.5 68t-70.5 194q0 226 321 227q126 0 273 -29v129q0 212 -238 212q-190 0 -280 -91l-36 59q103 99 337.5 99t283.5 -175q13 -46 13 -86v-533h153v-60h-217l-16 95q-149 -109 -332 -109z
M161 232q0 -84 58 -131.5t157 -47.5q184 0 298 105v226q-130 26 -244 26q-134 0 -201.5 -38t-67.5 -140z" />
    <glyph glyph-name="atilde" unicode="&#xe3;" horiz-adv-x="981" 
d="M355 1111q24 0 122.5 -23.5t122.5 -23.5q43 0 58 43h37q-15 -131 -124 -131q-45 0 -131 23.5t-122.5 23.5t-48.5 -41h-38q15 129 124 129zM342 -14q-121 0 -191.5 68t-70.5 194q0 226 321 227q126 0 273 -29v129q0 212 -238 212q-190 0 -280 -91l-36 59q103 99 337.5 99
t283.5 -175q13 -46 13 -86v-533h153v-60h-217l-16 95q-149 -109 -332 -109zM161 232q0 -84 58 -131.5t157 -47.5q184 0 298 105v226q-130 26 -244 26q-134 0 -201.5 -38t-67.5 -140z" />
    <glyph glyph-name="adieresis" unicode="&#xe4;" horiz-adv-x="981" 
d="M609 1082v-106h-100v106h100zM367 1082v-106h-100v106h100zM342 -14q-121 0 -191.5 68t-70.5 194q0 226 321 227q126 0 273 -29v129q0 212 -238 212q-190 0 -280 -91l-36 59q103 99 337.5 99t283.5 -175q13 -46 13 -86v-533h153v-60h-217l-16 95q-149 -109 -332 -109z
M161 232q0 -84 58 -131.5t157 -47.5q184 0 298 105v226q-130 26 -244 26q-134 0 -201.5 -38t-67.5 -140z" />
    <glyph glyph-name="aring" unicode="&#xe5;" horiz-adv-x="981" 
d="M579 1147q0 48 -32 86.5t-76 38.5q-137 0 -137 -139q0 -45 37 -79t86 -34q54 0 88 36.5t34 90.5zM457 1317q74 0 122 -46t48 -125q0 -74 -45.5 -121t-124.5 -49q-75 -1 -123 44.5t-48 125.5q0 73 46 122t125 49zM342 -14q-121 0 -191.5 68t-70.5 194q0 226 321 227
q126 0 273 -29v129q0 212 -238 212q-190 0 -280 -91l-36 59q103 99 337.5 99t283.5 -175q13 -46 13 -86v-533h153v-60h-217l-16 95q-149 -109 -332 -109zM161 232q0 -84 58 -131.5t157 -47.5q184 0 298 105v226q-130 26 -244 26q-134 0 -201.5 -38t-67.5 -140z" />
    <glyph glyph-name="ae" unicode="&#xe6;" horiz-adv-x="1499" 
d="M756 400q0 -177 79 -262.5t246 -85.5q195 -4 334 152l33 -55q-167 -163 -370.5 -163t-316.5 130q-142 -130 -373 -130q-308 0 -308 262q0 226 324 227q129 0 276 -29l-6 129q0 212 -238 212q-190 0 -280 -91l-36 59q103 99 339 99t285 -213q113 213 353 213
q109 0 190.5 -65.5t120.5 -167t39 -221.5h-691zM1369 466q-17 214 -161 294q-48 27 -120 27q-143 0 -233 -96t-97 -225h611zM430 410q-134 0 -201.5 -38t-67.5 -140q0 -179 242 -179q113 0 180.5 24t147.5 87q-51 102 -51 220q-137 26 -250 26z" />
    <glyph glyph-name="ccedilla" unicode="&#xe7;" horiz-adv-x="936" 
d="M584 -199q0 -88 -135 -88q-49 0 -101 20v46q47 -14 89.5 -14t42.5 35.5t-101 44.5l58 150h50l-39 -114h12q61 0 92.5 -28t31.5 -52zM772 600q-9 90 -81 137.5t-189 49.5q-151 0 -257 -97.5t-106 -267t107 -268t254 -100.5q216 0 344 168l23 -73q-163 -163 -357 -162
q-126 1 -229 55t-163.5 153t-60.5 223q0 194 122 313t319 121q201 3 264 -102v110h76v-260h-66z" />
    <glyph glyph-name="egrave" unicode="&#xe8;" horiz-adv-x="934" 
d="M458 976l-157 249h127l61 -249h-31zM867 149q-172 -163 -366 -163t-319 123.5t-125 305t118.5 310.5t312 129t298 -131t104.5 -323h-751q17 -251 223 -326q60 -22 126 -22q202 0 346 152zM812 466q-21 214 -183 294q-55 27 -133 27q-156 0 -252 -96t-103 -225h671z" />
    <glyph glyph-name="eacute" unicode="&#xe9;" horiz-adv-x="934" 
d="M458 976l59 249h126l-154 -249h-31zM867 149q-172 -163 -366 -163t-319 123.5t-125 305t118.5 310.5t312 129t298 -131t104.5 -323h-751q17 -251 223 -326q60 -22 126 -22q202 0 346 152zM812 466q-21 214 -183 294q-55 27 -133 27q-156 0 -252 -96t-103 -225h671z" />
    <glyph glyph-name="ecircumflex" unicode="&#xea;" horiz-adv-x="934" 
d="M284 976l139 273h95l146 -273h-89l-104 224l-105 -224h-82zM867 149q-172 -163 -366 -163t-319 123.5t-125 305t118.5 310.5t312 129t298 -131t104.5 -323h-751q17 -251 223 -326q60 -22 126 -22q202 0 346 152zM812 466q-21 214 -183 294q-55 27 -133 27
q-156 0 -252 -96t-103 -225h671z" />
    <glyph glyph-name="edieresis" unicode="&#xeb;" horiz-adv-x="934" 
d="M645 1082v-106h-100v106h100zM403 1082v-106h-100v106h100zM867 149q-172 -163 -366 -163t-319 123.5t-125 305t118.5 310.5t312 129t298 -131t104.5 -323h-751q17 -251 223 -326q60 -22 126 -22q202 0 346 152zM812 466q-21 214 -183 294q-55 27 -133 27
q-156 0 -252 -96t-103 -225h671z" />
    <glyph glyph-name="igrave" unicode="&#xec;" horiz-adv-x="569" 
d="M282 976l-157 249h127l61 -249h-31zM106 776v60h229v-776h154v-60h-383v60h150v716h-150z" />
    <glyph glyph-name="iacute" unicode="&#xed;" horiz-adv-x="569" 
d="M282 976l59 249h126l-154 -249h-31zM106 776v60h229v-776h154v-60h-383v60h150v716h-150z" />
    <glyph glyph-name="icircumflex" unicode="&#xee;" horiz-adv-x="569" 
d="M88 976l139 273h95l146 -273h-89l-104 224l-105 -224h-82zM106 776v60h229v-776h154v-60h-383v60h150v716h-150z" />
    <glyph glyph-name="idieresis" unicode="&#xef;" horiz-adv-x="569" 
d="M439 1082v-106h-100v106h100zM197 1082v-106h-100v106h100zM106 776v60h229v-776h154v-60h-383v60h150v716h-150z" />
    <glyph glyph-name="eth" unicode="&#xf0;" horiz-adv-x="920" 
d="M451 49q143 0 227 83.5t84 223.5q0 136 -93.5 219t-221.5 83q-144 0 -228 -85.5t-84 -242.5q0 -101 83.5 -191t232.5 -90zM465 1143l329 87l24 -55l-325 -84l212 -394q134 -225 134 -330q0 -182 -118 -286t-243 -104q-213 0 -319 116t-106 270.5t113.5 258.5t240.5 104
t225 -48l-217 393l-321 -83l-19 52l311 82l-106 192l67 47z" />
    <glyph glyph-name="ntilde" unicode="&#xf1;" horiz-adv-x="1202" 
d="M509 1111q24 0 122.5 -23.5t122.5 -23.5q43 0 58 43h37q-15 -131 -124 -131q-45 0 -131 23.5t-122.5 23.5t-48.5 -41h-38q15 129 124 129zM879 601q-1 97 -44 140.5t-137 45.5q-167 0 -337 -119v-608h182v-60h-443v60h181v719h-180v57h248l8 -100q179 118 361 118
q112 0 176 -61.5t64 -175.5v-557h175v-60h-411v60h157v541z" />
    <glyph glyph-name="ograve" unicode="&#xf2;" horiz-adv-x="1004" 
d="M493 976l-157 249h127l61 -249h-31zM767.5 690.5q-111.5 96.5 -260.5 96.5t-258.5 -97t-109.5 -268.5t109 -270t259 -98.5t261 98.5t111 270.5t-111.5 268.5zM824 102q-135 -116 -317.5 -116t-316 116.5t-133.5 320t133 317.5t316 114t318 -114t135 -318t-135 -320z" />
    <glyph glyph-name="oacute" unicode="&#xf3;" horiz-adv-x="1004" 
d="M493 976l59 249h126l-154 -249h-31zM767.5 690.5q-111.5 96.5 -260.5 96.5t-258.5 -97t-109.5 -268.5t109 -270t259 -98.5t261 98.5t111 270.5t-111.5 268.5zM824 102q-135 -116 -317.5 -116t-316 116.5t-133.5 320t133 317.5t316 114t318 -114t135 -318t-135 -320z" />
    <glyph glyph-name="ocircumflex" unicode="&#xf4;" horiz-adv-x="1004" 
d="M318 976l139 273h95l146 -273h-89l-104 224l-105 -224h-82zM767.5 690.5q-111.5 96.5 -260.5 96.5t-258.5 -97t-109.5 -268.5t109 -270t259 -98.5t261 98.5t111 270.5t-111.5 268.5zM824 102q-135 -116 -317.5 -116t-316 116.5t-133.5 320t133 317.5t316 114t318 -114
t135 -318t-135 -320z" />
    <glyph glyph-name="otilde" unicode="&#xf5;" horiz-adv-x="1004" 
d="M400 1111q24 0 122.5 -23.5t122.5 -23.5q43 0 58 43h37q-15 -131 -124 -131q-45 0 -131 23.5t-122.5 23.5t-48.5 -41h-38q15 129 124 129zM767.5 690.5q-111.5 96.5 -260.5 96.5t-258.5 -97t-109.5 -268.5t109 -270t259 -98.5t261 98.5t111 270.5t-111.5 268.5zM824 102
q-135 -116 -317.5 -116t-316 116.5t-133.5 320t133 317.5t316 114t318 -114t135 -318t-135 -320z" />
    <glyph glyph-name="odieresis" unicode="&#xf6;" horiz-adv-x="1004" 
d="M679 1082v-106h-100v106h100zM437 1082v-106h-100v106h100zM767.5 690.5q-111.5 96.5 -260.5 96.5t-258.5 -97t-109.5 -268.5t109 -270t259 -98.5t261 98.5t111 270.5t-111.5 268.5zM824 102q-135 -116 -317.5 -116t-316 116.5t-133.5 320t133 317.5t316 114t318 -114
t135 -318t-135 -320z" />
    <glyph glyph-name="divide" unicode="&#xf7;" horiz-adv-x="522" 
d="M529 413h-529v62h529v-62zM324 276v-120h-116v120h116zM324 725v-120h-116v120h116z" />
    <glyph glyph-name="oslash" unicode="&#xf8;" horiz-adv-x="997" 
d="M297 29q-112 51 -178.5 150.5t-67.5 243.5q0 203 133 317t316 114q104 0 198 -39l115 224l41 -24l-113 -221q212 -117 212 -346.5t-135 -345.5t-318 -116q-81 0 -159 26l-107 -208l-40 24zM708 730l-336 -656q132 -44 232 -9t152 81q116 103 116.5 293t-164.5 291z
M666 752q-79 35 -157 35q-157 0 -266.5 -97t-109.5 -266q0 -237 196 -332z" />
    <glyph glyph-name="ugrave" unicode="&#xf9;" horiz-adv-x="1102" 
d="M509 976l-157 249h127l61 -249h-31zM268 239q0 -98 46 -141t145 -45q135 0 325 120v603h-174v60h253v-778h173v-58h-240l-8 104q-154 -92 -221.5 -105t-160.5 -13q-92 0 -154.5 70.5t-62.5 166.5v553h-175v60h254v-597z" />
    <glyph glyph-name="uacute" unicode="&#xfa;" horiz-adv-x="1102" 
d="M509 976l59 249h126l-154 -249h-31zM268 239q0 -98 46 -141t145 -45q135 0 325 120v603h-174v60h253v-778h173v-58h-240l-8 104q-154 -92 -221.5 -105t-160.5 -13q-92 0 -154.5 70.5t-62.5 166.5v553h-175v60h254v-597z" />
    <glyph glyph-name="ucircumflex" unicode="&#xfb;" horiz-adv-x="1102" 
d="M335 976l139 273h95l146 -273h-89l-104 224l-105 -224h-82zM268 239q0 -98 46 -141t145 -45q135 0 325 120v603h-174v60h253v-778h173v-58h-240l-8 104q-154 -92 -221.5 -105t-160.5 -13q-92 0 -154.5 70.5t-62.5 166.5v553h-175v60h254v-597z" />
    <glyph glyph-name="udieresis" unicode="&#xfc;" horiz-adv-x="1102" 
d="M696 1082v-106h-100v106h100zM454 1082v-106h-100v106h100zM268 239q0 -98 46 -141t145 -45q135 0 325 120v603h-174v60h253v-778h173v-58h-240l-8 104q-154 -92 -221.5 -105t-160.5 -13q-92 0 -154.5 70.5t-62.5 166.5v553h-175v60h254v-597z" />
    <glyph glyph-name="yacute" unicode="&#xfd;" horiz-adv-x="1026" 
d="M489 976l59 249h126l-154 -249h-31zM139 -206q143 0 204.5 15t93.5 87l70 162h-56l-320 718h-164v60h399v-60h-148l299 -687l276 687h-143v60h393v-60h-159l-374 -903q-60 -139 -246 -145q-58 -2 -125 -2v68z" />
    <glyph glyph-name="thorn" unicode="&#xfe;" horiz-adv-x="1083" 
d="M252 1234v-539q135 159 348.5 159t331.5 -125.5t118 -294.5q0 -248 -193 -383q-102 -72 -220 -72t-230 49t-155 97l-3 -485h-241v60h165v1474h-149v60h228zM971 388q0 189 -96.5 294t-278.5 105q-179 0 -344 -168v-426q180 -140 356.5 -140t269.5 112t93 223z" />
    <glyph glyph-name="ydieresis" unicode="&#xff;" horiz-adv-x="1026" 
d="M676 1082v-106h-100v106h100zM434 1082v-106h-100v106h100zM139 -206q143 0 204.5 15t93.5 87l70 162h-56l-320 718h-164v60h399v-60h-148l299 -687l276 687h-143v60h393v-60h-159l-374 -903q-60 -139 -246 -145q-58 -2 -125 -2v68z" />
    <glyph glyph-name="dotlessi" unicode="&#x131;" horiz-adv-x="569" 
d="M106 776v60h229v-776h154v-60h-383v60h150v716h-150z" />
    <glyph glyph-name="OE" unicode="&#x152;" horiz-adv-x="1937" 
d="M1068 1164v-498h433v158h67v-400h-67v172h-433v-526h661v306h77v-376h-1090q-303 0 -471.5 182t-168.5 432.5t169.5 435t470.5 184.5h1068v-376h-77v306h-639zM986 1158h-270q-262 0 -409 -162t-147 -384t145.5 -382t410.5 -160h270v1088z" />
    <glyph glyph-name="oe" unicode="&#x153;" horiz-adv-x="1720" 
d="M509 854q128 0 235 -67.5t154 -176.5q103 244 394 244q177 0 281.5 -131t104.5 -323h-739q17 -251 223 -326q60 -22 126 -22q196 0 334 152l33 -55q-167 -163 -367 -163q-131 0 -236 67.5t-155 178.5q-47 -115 -151.5 -180.5t-257.5 -65.5q-168 0 -298.5 116.5
t-130.5 320t130 317.5t320 114zM749.5 690q-107.5 97 -251.5 97t-250.5 -96t-106.5 -269.5t106 -271t251 -97.5t252 98.5t107 270t-107.5 268.5zM1600 466q-17 213 -183 294q-55 27 -132 27q-152 0 -245 -97t-99 -224h659z" />
    <glyph glyph-name="circumflex" unicode="&#x2c6;" horiz-adv-x="598" 
d="M106 922l139 273h95l146 -273h-89l-104 224l-105 -224h-82z" />
    <glyph glyph-name="ring" unicode="&#x2da;" horiz-adv-x="590" 
d="M418 1166q0 48 -32 86.5t-76 38.5q-137 0 -137 -139q0 -45 37 -79t86 -34q54 0 88 36.5t34 90.5zM296 1336q74 0 122 -46t48 -125q0 -74 -45.5 -121t-124.5 -49q-75 -1 -123 44.5t-48 125.5q0 73 46 122t125 49z" />
    <glyph glyph-name="tilde" unicode="&#x2dc;" horiz-adv-x="717" 
d="M249 1157q24 0 122.5 -23.5t122.5 -23.5q43 0 58 43h37q-15 -131 -124 -131q-45 0 -131 23.5t-122.5 23.5t-48.5 -41h-38q15 129 124 129z" />
    <glyph glyph-name="endash" unicode="&#x2013;" horiz-adv-x="995" 
d="M859 60v-60h-716v60h716z" />
    <glyph glyph-name="emdash" unicode="&#x2014;" horiz-adv-x="1358" 
d="M1220 60v-60h-1077v60h1077z" />
    <glyph glyph-name="quoteleft" unicode="&#x2018;" horiz-adv-x="401" 
d="M135 959v122q0 174 136 174v-44q-47 -15 -59 -39.5t-12 -92.5h61v-120h-126z" />
    <glyph glyph-name="quoteright" unicode="&#x2019;" horiz-adv-x="401" 
d="M269 1234v-123q0 -174 -136 -174v45q47 15 59 39.5t12 92.5h-61v120h126z" />
    <glyph glyph-name="quotesinglbase" unicode="&#x201a;" horiz-adv-x="412" 
d="M274 116v-122q0 -174 -135 -174v44q47 15 59 39.5t12 92.5h-62v120h126z" />
    <glyph glyph-name="quotedblleft" unicode="&#x201c;" horiz-adv-x="627" 
d="M361 959v122q0 174 136 174v-44q-47 -15 -59 -39.5t-12 -92.5h61v-120h-126zM135 959v122q0 174 136 174v-44q-47 -15 -59 -39.5t-12 -92.5h61v-120h-126z" />
    <glyph glyph-name="quotedblright" unicode="&#x201d;" horiz-adv-x="627" 
d="M269 1234v-123q0 -174 -136 -174v45q47 15 59 39.5t12 92.5h-61v120h126zM495 1234v-123q0 -174 -136 -174v45q47 15 59 39.5t12 92.5h-61v120h126z" />
    <glyph glyph-name="quotedblbase" unicode="&#x201e;" horiz-adv-x="664" 
d="M274 116v-122q0 -174 -135 -174v44q47 15 59 39.5t12 92.5h-62v120h126zM525 116v-122q0 -174 -135 -174v44q45 15 57.5 43t12.5 89h-61v120h126z" />
    <glyph glyph-name="dagger" unicode="&#x2020;" horiz-adv-x="580" 
d="M269 2l-26 588q0 157 26 297l-230 -25v79l230 -18l-33 287h106l-33 -287l227 18v-79l-227 25q26 -137 26 -294l-26 -591h-40z" />
    <glyph glyph-name="daggerdbl" unicode="&#x2021;" horiz-adv-x="639" 
d="M302 299q-14 66 -14 294q0 224 14 294l-230 -25v79l230 -18l-33 287h106l-33 -287l227 18v-79l-227 25q14 -93 14 -296t-14 -292l227 25v-79l-227 18l33 -287h-106l33 287l-230 -18v79z" />
    <glyph glyph-name="bullet" unicode="&#x2022;" horiz-adv-x="739" 
d="M129 674q0 97 70.5 164t169.5 67t170 -67t71 -163.5t-71 -164.5t-170 -68t-169.5 67.5t-70.5 164.5z" />
    <glyph glyph-name="ellipsis" unicode="&#x2026;" horiz-adv-x="926" 
d="M263 120v-120h-116v120h116zM524 120v-120h-117v120h117zM784 120v-120h-116v120h116z" />
    <glyph glyph-name="guilsinglleft" unicode="&#x2039;" horiz-adv-x="512" 
d="M348 1043h48l-212 -379l212 -383h-48l-272 383z" />
    <glyph glyph-name="guilsinglright" unicode="&#x203a;" horiz-adv-x="512" 
d="M437 664l-272 -383h-48l212 383l-212 379h48z" />
    <glyph glyph-name="fraction" unicode="&#x2044;" horiz-adv-x="537" 
d="M415 1255h71l-368 -1278h-75z" />
    <glyph glyph-name="foursuperior" unicode="&#x2074;" horiz-adv-x="770" 
d="M74 316l338 550h92v-543h178v-63h-178v-199h112v-61h-297v61h112v199h-348zM431 323v445q-28 -47 -121.5 -201.5t-145.5 -243.5h267z" />
    <glyph glyph-name="Euro" unicode="&#x20ac;" horiz-adv-x="1303" 
d="M280 455q41 -183 176 -295.5t337 -112.5q191 0 382 127l34 -64q-200 -132 -430 -132q-339 0 -505 267q-56 90 -80 210h-184v62h174q-6 78 -6 119.5t9 95.5h-177v62h190q53 203 215 332t364 129t368 -156v138h75v-230l-62 -13q-169 184 -406.5 184t-393.5 -226
q-48 -70 -74 -158h615v-62h-629q-10 -54 -10 -110q0 -47 7 -105h632v-62h-621z" />
    <glyph glyph-name="minus" unicode="&#x2212;" horiz-adv-x="1233" 
d="M1109 959v-87h-984v87h984z" />
    </font>
</defs>
</svg>
